<svg width="512" height="512" viewBox="0 0 64 64" fill="none" xmlns="http://www.w3.org/2000/svg">
  <title>HostControl — tworzenie stron internetowych</title>
  <defs>
    <linearGradient id="hc-frame" x1="5" y1="4" x2="59" y2="60" gradientUnits="userSpaceOnUse">
      <stop stop-color="#B6FF4A"/>
      <stop offset="0.48" stop-color="#41E2CC"/>
      <stop offset="1" stop-color="#3F9DFF"/>
    </linearGradient>
    <linearGradient id="hc-mark" x1="16" y1="19" x2="49" y2="45" gradientUnits="userSpaceOnUse">
      <stop stop-color="#76DC75"/>
      <stop offset="0.52" stop-color="#20C9B4"/>
      <stop offset="1" stop-color="#278FEA"/>
    </linearGradient>
    <filter id="hc-shadow" x="-30%" y="-25%" width="160%" height="175%">
      <feDropShadow dx="0" dy="6" stdDeviation="5" flood-color="#168E9A" flood-opacity="0.16"/>
    </filter>
  </defs>

  <g filter="url(#hc-shadow)">
    <rect x="4" y="4" width="56" height="56" rx="18" fill="white"/>
    <rect x="5" y="5" width="54" height="54" rx="17" stroke="url(#hc-frame)" stroke-width="2"/>
  </g>

  <path d="M6 19H58" stroke="#E2F0ED" stroke-width="1.4"/>
  <circle cx="13" cy="12" r="2" fill="#B6FF4A"/>
  <circle cx="20" cy="12" r="2" fill="#41E2CC"/>
  <circle cx="27" cy="12" r="2" fill="#3F9DFF"/>

  <path d="M17 26V43M28 26V43M17 34.5H28" stroke="#102F3A" stroke-width="4" stroke-linecap="round"/>
  <path d="M47 28.5C44.9 25.9 42.2 24.5 39.1 24.5C33.7 24.5 29.5 28.8 29.5 34.5C29.5 40.2 33.7 44.5 39.1 44.5C42.2 44.5 44.9 43.1 47 40.5" stroke="url(#hc-mark)" stroke-width="4" stroke-linecap="round"/>
  <path d="M46 32L50 35L46 38" stroke="#278FEA" stroke-width="2.2" stroke-linecap="round" stroke-linejoin="round"/>
  <rect x="16" y="50" width="32" height="3" rx="1.5" fill="#E3F1EE"/>
  <rect x="16" y="50" width="18" height="3" rx="1.5" fill="url(#hc-frame)"/>
</svg>
